<svg width="396" height="282" viewBox="0 0 396 282" fill="none" xmlns="http://www.w3.org/2000/svg">
<rect width="396" height="282" fill="#1E1E1E"/>
<g clip-path="url(#clip0_0_1)">
<rect width="1440" height="1264" transform="translate(-522 -491)" fill="#010313"/>
<rect x="-113" y="-495" width="622" height="1264" fill="url(#paint0_linear_0_1)"/>
<rect x="918" y="773" width="1440" height="660" transform="rotate(-180 918 773)" fill="url(#paint1_linear_0_1)"/>
<rect width="396" height="282" rx="16" fill="url(#paint2_linear_0_1)"/>
<rect x="0.5" y="0.5" width="395" height="281" rx="15.5" stroke="white" stroke-opacity="0.2"/>
<path d="M0 16C0 7.16345 7.16344 0 16 0H134.997C145.251 0 152.858 9.51088 150.606 19.5148L94.3114 269.515C92.6677 276.814 86.1845 282 78.7022 282H16C7.16344 282 0 274.837 0 266V16Z" fill="white" fill-opacity="0.07"/>
</g>
<defs>
<linearGradient id="paint0_linear_0_1" x1="198.001" y1="-595" x2="198.001" y2="769" gradientUnits="userSpaceOnUse">
<stop offset="0.0001" stop-color="#E855DE"/>
<stop offset="0.412817" stop-color="#6C0EEB"/>
<stop offset="0.711667" stop-color="#5400EE" stop-opacity="0.34"/>
</linearGradient>
<linearGradient id="paint1_linear_0_1" x1="1638" y1="599.5" x2="1638" y2="1433" gradientUnits="userSpaceOnUse">
<stop stop-color="#010313"/>
<stop offset="1" stop-color="#010313" stop-opacity="0"/>
</linearGradient>
<linearGradient id="paint2_linear_0_1" x1="0" y1="0" x2="376.588" y2="321.209" gradientUnits="userSpaceOnUse">
<stop stop-color="white" stop-opacity="0.56"/>
<stop offset="1" stop-color="#989797" stop-opacity="0"/>
</linearGradient>
<clipPath id="clip0_0_1">
<rect width="1440" height="1264" fill="white" transform="translate(-522 -491)"/>
</clipPath>
</defs>
</svg>
